<svg width="126" height="60" viewBox="0 0 126 60" fill="none" xmlns="http://www.w3.org/2000/svg">
<path d="M109.163 59.7216C106.336 59.7216 104.923 58.2784 104.923 55.392C104.923 53.6958 105.563 51.8658 106.842 49.9018C108.687 47.0154 111.157 45.111 114.252 44.1885C115.353 43.8612 116.498 43.6975 117.689 43.6975C117.897 43.6975 118.001 43.9058 118.001 44.3224C118.001 44.739 117.897 44.9473 117.689 44.9473C114.177 44.9473 111.231 46.331 108.851 49.0984C107.095 51.1814 106.217 53.1899 106.217 55.1241C106.217 57.0583 106.961 58.1742 108.449 58.4718L109.163 58.5164C111.633 58.5164 113.612 57.4749 115.1 55.392C116.141 53.9041 116.915 52.3865 117.421 50.8392C117.956 49.3216 118.343 48.1015 118.581 47.1791C118.849 46.2566 119.147 45.0366 119.474 43.519C119.801 42.0312 120.054 40.7665 120.233 39.725C120.441 38.6835 120.724 37.1957 121.081 35.2615C121.468 33.2975 121.765 31.7502 121.973 30.6194H121.706C118.105 38.1479 115.144 41.9121 112.823 41.9121C110.83 41.9121 109.833 40.6177 109.833 38.0289C109.833 36.1542 110.636 32.4197 112.243 26.8254C112.6 25.5459 112.868 24.5937 113.046 23.9688C113.225 23.3141 113.508 22.9868 113.895 22.9868C114.43 22.9868 114.817 23.3737 115.055 24.1473C115.174 24.4747 115.234 24.8913 115.234 25.3971C115.234 25.8732 115.159 26.4088 115.01 27.004C114.862 27.5694 114.549 28.6704 114.073 30.307C112.794 34.711 112.154 37.6718 112.154 39.1894C112.154 40.1714 112.451 40.6623 113.046 40.6623C113.761 40.6623 114.638 39.9928 115.68 38.6538C116.751 37.3147 117.793 35.6781 118.804 33.7439C120.649 30.2326 122.152 26.9593 123.313 23.9242C123.551 23.2993 123.848 22.9868 124.205 22.9868C124.711 22.9868 125.083 23.3737 125.321 24.1473C125.44 24.5639 125.5 25.0252 125.5 25.531C125.5 26.0369 125.247 27.495 124.741 29.9053C124.265 32.3156 123.774 34.6217 123.268 36.8237C122.792 39.0257 122.152 41.6146 121.349 44.5902C120.575 47.5659 119.831 49.7828 119.117 51.2409C118.432 52.699 117.584 54.1868 116.573 55.7044C115.591 57.222 114.49 58.2635 113.27 58.8289C112.05 59.424 110.681 59.7216 109.163 59.7216Z" fill="#686867"/>
<path d="M99.4053 22.4071C99.4053 22.0798 99.6136 21.9162 100.03 21.9162H102.351C102.5 21.321 102.693 20.5771 102.931 19.6844L103.556 17.3634C103.735 16.679 103.884 16.0541 104.003 15.4887C104.151 14.9233 104.419 14.6406 104.806 14.6406C105.312 14.6406 105.669 15.0275 105.877 15.8011C105.967 16.1285 106.011 16.5302 106.011 17.0063C106.011 17.4824 105.922 18.0924 105.743 18.8363L104.895 21.9162H107.663C107.931 21.9162 108.109 22.0054 108.198 22.184C108.317 22.3625 108.317 22.5411 108.198 22.7196C108.109 22.8684 107.931 22.9428 107.663 22.9428H104.628C102.783 29.8761 101.86 34.786 101.86 37.6724C101.86 39.7851 102.336 40.8415 103.289 40.8415C104.062 40.8415 105.148 39.8149 106.547 37.7616C107.945 35.7084 109.151 33.6552 110.162 31.602L111.68 28.5222H112.885C112.707 28.8792 112.469 29.3702 112.171 29.9951C111.903 30.5903 111.353 31.6764 110.519 33.2535C109.686 34.8008 108.883 36.1697 108.109 37.3599C107.365 38.5502 106.517 39.6363 105.565 40.6183C104.642 41.5705 103.78 42.0466 102.976 42.0466C102.173 42.0466 101.473 41.7937 100.878 41.2878C100.313 40.7522 99.9558 40.0083 99.807 39.0561C99.6285 38.0741 99.5392 37.0772 99.5392 36.0655C99.5392 33.7147 100.372 29.3405 102.039 22.9428H100.03C99.7921 22.9428 99.6284 22.8833 99.5392 22.7642C99.4499 22.6154 99.4053 22.4964 99.4053 22.4071Z" fill="#686867"/>
<path d="M95.1881 15.1768C95.8725 15.1768 96.2147 15.638 96.2147 16.5604C96.2147 17.4829 95.7684 18.2268 94.8756 18.7922C94.4293 19.0898 94.0425 19.2386 93.7151 19.2386C93.239 19.2386 92.9563 19.0898 92.8671 18.7922L92.8224 18.6583C93.0902 18.6583 93.2837 18.3756 93.4027 17.8102C93.5217 17.2151 93.7003 16.6348 93.9383 16.0695C94.2061 15.4743 94.6227 15.1768 95.1881 15.1768ZM92.3314 40.842C93.1051 40.842 94.1912 39.8154 95.5898 37.7621C96.9884 35.7089 98.1935 33.6557 99.2053 31.6025L100.723 28.5227H101.928C101.749 28.8798 101.511 29.3707 101.214 29.9956C100.946 30.5908 100.396 31.6769 99.5623 33.254C98.7291 34.8013 97.9257 36.1702 97.152 37.3604C96.4081 38.5507 95.5601 39.6368 94.6078 40.6188C93.6854 41.571 92.8819 42.0471 92.1975 42.0471C89.9955 42.0471 88.8945 40.6188 88.8945 37.7621C88.8945 35.6197 89.5045 32.1381 90.7246 27.3175C90.8436 26.8117 90.9329 26.4248 90.9924 26.157C91.0817 25.8892 91.1709 25.547 91.2602 25.1304C91.3495 24.684 91.4387 24.2823 91.528 23.9252C91.6768 23.3004 91.9446 22.9879 92.3314 22.9879C92.8671 22.9879 93.2539 23.3747 93.492 24.1484C93.611 24.5055 93.6705 24.937 93.6705 25.4428C93.6705 25.9487 93.611 26.4843 93.492 27.0497C93.3729 27.5853 93.1795 28.3888 92.9117 29.46C92.6439 30.5313 92.4356 31.4091 92.2868 32.0935C92.138 32.7779 91.9744 33.6111 91.7958 34.5931C91.4685 36.2297 91.3048 37.6878 91.3048 38.9673C91.3048 40.2171 91.647 40.842 92.3314 40.842Z" fill="#686867"/>
<path d="M71.5965 41.9122C70.7633 41.9122 70.3467 41.2724 70.3467 39.9928C70.3467 39.3084 71.1799 34.3242 72.8463 25.0401C72.9355 24.4152 73.2033 24.1027 73.6497 24.1027C74.1853 24.1027 74.587 24.4896 74.8548 25.2632C75.0036 25.6798 75.078 26.1411 75.078 26.6469C75.078 27.123 75.0185 27.6438 74.8995 28.2092L74.1853 31.78H74.4531C77.1312 25.7691 79.6903 22.7637 82.1304 22.7637C83.0826 22.7637 83.8116 23.0612 84.3175 23.6564C84.8234 24.2218 85.0763 25.0103 85.0763 26.022C85.0763 27.0338 84.6746 29.2209 83.8711 32.5834C83.0677 35.9459 82.666 38.2818 82.666 39.5911C82.666 41.5253 83.0231 42.4924 83.7372 42.4924C83.7372 42.7007 83.6033 42.909 83.3355 43.1173C83.0677 43.3256 82.7553 43.4298 82.3982 43.4298C80.6723 43.4298 79.8093 42.0758 79.8093 39.368C79.8093 37.7016 80.2557 35.1871 81.1484 31.8246C82.0709 28.4323 82.5321 26.275 82.5321 25.3525C82.5321 24.4003 82.1601 23.9242 81.4162 23.9242C80.345 23.9242 79.0505 25.3228 77.5329 28.1199C76.0451 30.917 74.84 33.5951 73.9175 36.1542C73.0248 38.6835 72.5041 40.2755 72.3553 40.9302C72.2362 41.5848 71.9833 41.9122 71.5965 41.9122Z" fill="#686867"/>
<path d="M57.2586 41.9123C56.4254 41.9123 56.0088 41.2726 56.0088 39.993C56.0088 39.3086 56.842 34.3244 58.5084 25.0402C58.6274 24.4153 58.8952 24.1029 59.3118 24.1029C59.8474 24.1029 60.2491 24.4897 60.5169 25.2634C60.6657 25.68 60.7401 26.1412 60.7401 26.6471C60.7401 27.1232 60.6806 27.644 60.5616 28.2093L59.8474 31.8694H60.0706C62.6297 25.9181 64.9805 22.9424 67.1229 22.9424C68.3132 22.9424 69.1018 23.5226 69.4886 24.6832C69.6374 25.1295 69.7118 25.6502 69.7118 26.2454C69.7118 26.8108 69.5481 27.4357 69.2208 28.1201C68.6554 29.2806 67.8073 29.8608 66.6766 29.8608C66.4385 29.8608 66.2451 29.8013 66.0963 29.6823C65.9773 29.5633 65.9029 29.3996 65.8732 29.1913C66.1112 29.1913 66.4237 28.7598 66.8105 27.8969C67.1973 27.0042 67.4205 26.1859 67.48 25.442C67.5395 24.698 67.2866 24.2666 66.7212 24.1475C65.6797 24.1475 64.4448 25.5015 63.0165 28.2093C61.5882 30.9172 60.4425 33.506 59.5796 35.9759C58.7167 38.4457 58.2108 40.0525 58.062 40.7964C57.9132 41.5404 57.6454 41.9123 57.2586 41.9123Z" fill="#686867"/>
<path d="M43.5779 35.3951C43.5779 38.9957 44.8575 40.796 47.4165 40.796C48.3688 40.796 49.3656 40.3794 50.4071 39.5462C51.4784 38.6832 52.4454 37.6566 53.3084 36.4663C55.2128 33.7287 56.5519 31.497 57.3256 29.7711L57.9058 28.5213H59.111C58.6051 29.7116 57.8612 31.1845 56.8792 32.9402C55.8972 34.6661 54.9599 36.1241 54.0672 37.3144C53.1745 38.5047 52.1181 39.5908 50.8981 40.5728C49.6781 41.525 48.5175 42.0011 47.4165 42.0011C43.0125 42.0011 40.8105 39.5313 40.8105 34.5917C40.8105 32.3004 41.4801 30.0091 42.8191 27.7179C44.664 24.5339 46.9404 22.9419 49.6483 22.9419C51.5527 22.9419 52.505 23.9834 52.505 26.0664C52.505 27.6137 51.9098 29.2206 50.7196 30.887C49.0532 33.1485 47.1041 34.2941 44.8723 34.3239C44.545 34.3239 44.3367 34.1751 44.2475 33.8775L44.2028 33.699C45.7502 33.699 47.2231 32.6872 48.6217 30.6638C50.05 28.6106 50.7642 26.8995 50.7642 25.5307C50.7642 24.6083 50.4071 24.147 49.6929 24.147C48.1158 24.147 46.6429 25.5307 45.2741 28.2981C44.1433 30.6489 43.5779 33.0146 43.5779 35.3951Z" fill="#686867"/>
<path d="M30.207 22.4071C30.207 22.0798 30.4153 21.9162 30.8319 21.9162H33.153C33.3017 21.321 33.4952 20.5771 33.7332 19.6844L34.3581 17.3634C34.5366 16.679 34.6854 16.0541 34.8045 15.4887C34.9532 14.9233 35.221 14.6406 35.6079 14.6406C36.1138 14.6406 36.4708 15.0275 36.6791 15.8011C36.7684 16.1285 36.813 16.5302 36.813 17.0063C36.813 17.4824 36.7238 18.0924 36.5452 18.8363L35.6972 21.9162H38.4645C38.7323 21.9162 38.9109 22.0054 39.0002 22.184C39.1192 22.3625 39.1192 22.5411 39.0002 22.7196C38.9109 22.8684 38.7323 22.9428 38.4645 22.9428H35.4293C33.5844 29.8761 32.662 34.786 32.662 37.6724C32.662 39.7851 33.1381 40.8415 34.0903 40.8415C34.864 40.8415 35.9501 39.8149 37.3487 37.7616C38.7472 35.7084 39.9524 33.6552 40.9641 31.602L42.4817 28.5222H43.6869C43.5083 28.8792 43.2703 29.3702 42.9727 29.9951C42.7049 30.5903 42.1544 31.6764 41.3212 33.2535C40.488 34.8008 39.6846 36.1697 38.9109 37.3599C38.167 38.5502 37.3189 39.6363 36.3667 40.6183C35.4442 41.5705 34.5813 42.0466 33.7778 42.0466C32.9744 42.0466 32.2751 41.7937 31.68 41.2878C31.1146 40.7522 30.7575 40.0083 30.6087 39.0561C30.4302 38.0741 30.3409 37.0772 30.3409 36.0655C30.3409 33.7147 31.1741 29.3405 32.8405 22.9428H30.8319C30.5939 22.9428 30.4302 22.8833 30.3409 22.7642C30.2517 22.6154 30.207 22.4964 30.207 22.4071Z" fill="#686867"/>
<path d="M12.4176 0C12.5961 0 12.73 0.0743911 12.8193 0.223175C12.9383 0.342202 12.9978 0.46123 12.9978 0.580256V0.758797C11.0637 0.758797 9.39727 1.32417 7.99871 2.45493C6.03476 4.0618 5.05279 5.99599 5.05279 8.25751C5.05279 9.23948 5.26108 10.2215 5.67768 11.2034C6.33233 12.8103 7.53748 14.0452 9.29313 14.9081C10.0073 12.2598 11.4802 9.99828 13.712 8.1236C15.9735 6.21917 18.7409 5.26695 22.0141 5.26695C24.484 5.26695 26.0611 6.10014 26.7455 7.76652C26.9538 8.27238 27.0579 8.79313 27.0579 9.32875C27.0579 10.4297 26.6116 11.5903 25.7189 12.8103C23.5169 15.7265 19.9907 17.1845 15.1403 17.1845C13.6525 17.1845 12.3581 17.0506 11.2571 16.7828C11.1678 17.3482 11.1232 17.9433 11.1232 18.5682C11.1232 19.1931 11.2273 19.818 11.4356 20.4429C13.2508 19.7883 15.1701 19.4609 17.1935 19.4609C19.2468 19.4609 20.4966 19.9817 20.9429 21.0232C21.0322 21.2612 21.0768 21.4844 21.0768 21.6927C21.0768 22.3176 20.6007 22.9425 19.6485 23.5674C18.6963 24.1923 17.2233 24.5047 15.2296 24.5047C13.2359 24.5047 11.629 23.8203 10.409 22.4515C7.76065 24.1476 5.81158 26.6472 4.5618 29.9502C3.72861 32.1522 3.31201 34.2947 3.31201 36.3777C3.31201 37.4191 3.41616 38.4309 3.62446 39.4128C4.24935 42.448 5.70744 44.4864 7.99871 45.5279C7.99871 45.4386 7.99871 45.3493 7.99871 45.2601C7.99871 42.4927 8.44506 39.7848 9.33776 37.1365C10.2602 34.4881 11.7034 32.2117 13.6674 30.3073C15.6313 28.3731 17.8928 27.406 20.4519 27.406C23.011 27.406 24.6625 28.5665 25.4064 30.8875C25.6742 31.7207 25.8081 32.5837 25.8081 33.4764C25.8081 35.113 25.3618 36.8984 24.4691 38.8326C22.9217 42.1356 20.5858 44.531 17.4614 46.0189C15.5569 46.9116 13.5037 47.3579 11.3017 47.3579C10.9446 47.3579 10.4685 47.3282 9.87338 47.2686C9.96265 49.7087 10.5132 51.6875 11.5249 53.2051C12.5366 54.7227 13.9947 55.4815 15.8991 55.4815C15.7801 55.9874 15.4081 56.2403 14.7833 56.2403C12.7895 56.2403 11.2124 55.3774 10.0519 53.6515C8.92117 51.9256 8.26652 49.6938 8.08798 46.9562C5.94549 46.4206 4.2196 45.3642 2.9103 43.7871C1.30343 41.8827 0.5 39.4575 0.5 36.5116C0.5 34.994 0.723176 33.3127 1.16953 31.4678C1.61588 29.5931 2.59785 27.6887 4.11545 25.7545C5.63304 23.7905 7.46309 22.2729 9.60557 21.2017C9.12946 20.19 8.89141 19.2378 8.89141 18.3451C8.89141 17.4226 8.93605 16.6489 9.02532 16.024C7.68626 15.3991 6.60014 14.5659 5.76695 13.5245C4.63619 12.0664 4.07081 10.4446 4.07081 8.65922C4.07081 6.66552 4.63619 4.86523 5.76695 3.25836C6.48111 2.30615 7.41845 1.53247 8.57896 0.937338C9.73948 0.312446 11.019 0 12.4176 0ZM20.809 28.4772C18.8153 28.4772 16.9555 29.4146 15.2296 31.2892C13.5335 33.1342 12.2242 35.3957 11.3017 38.0738C10.409 40.7519 9.9329 43.4151 9.87338 46.0635C10.29 46.1528 10.7363 46.1974 11.2124 46.1974C15.5569 46.1974 19.0236 44.5161 21.6124 41.1536C23.5169 38.6838 24.4691 36.1694 24.4691 33.6103C24.4691 31.0512 23.7252 29.4443 22.2373 28.7897C21.8207 28.5814 21.3446 28.4772 20.809 28.4772ZM15.0957 16.0687C18.5475 16.0687 21.2553 14.9974 23.2193 12.8549C24.3798 11.6051 24.9601 10.3851 24.9601 9.19484C24.9601 8.92703 24.9452 8.6741 24.9154 8.43605C24.5583 7.03748 23.4871 6.32331 21.7017 6.29356C19.2616 6.29356 17.0894 7.24577 15.185 9.15021C13.3103 11.0546 12.0754 13.2418 11.4802 15.7116C12.5812 15.9496 13.7864 16.0687 15.0957 16.0687ZM17.1935 20.4429C15.3486 20.4429 13.6079 20.8149 11.9712 21.5588C12.7747 22.8086 14.1137 23.4335 15.9884 23.4335C17.8928 23.4335 19.1129 23.0169 19.6485 22.1837C19.7675 21.9754 19.827 21.7968 19.827 21.6481C19.827 21.2612 19.5592 20.9636 19.0236 20.7554C18.5177 20.5471 17.9077 20.4429 17.1935 20.4429Z" fill="#686867"/>
</svg>
